<svg width="700" height="260" xmlns="http://www.w3.org/2000/svg">
  <text x="350" y="22" fill="#333" font-size="14" font-weight="bold" text-anchor="middle">“不幸福”的切入策略</text>

  <!-- Word-level -->
  <text x="30" y="72" fill="#e74c3c" font-size="12" font-weight="bold">单词 :</text>
  <rect x="120" y="52" width="150" height="32" rx="6" fill="#e74c3c" opacity="0.12" stroke="#e74c3c" stroke-width="1.5"/>
  <text x="195" y="73" fill="#e74c3c" font-size="13" text-anchor="middle">不高兴</text>
  <text x="400" y="72" fill="#666" font-size="10">1个符号，，紧凑,但稀有字得到未知符号</text>

  <!-- Character-level -->
  <text x="30" y="137" fill="#3498db" font-size="12" font-weight="bold">字符 :</text>
  <g>
    <rect x="120" y="117" width="28" height="32" rx="4" fill="#3498db" opacity="0.12" stroke="#3498db" stroke-width="1"/>
    <text x="134" y="138" fill="#3498db" font-size="12" text-anchor="middle">u</text>
    <rect x="152" y="117" width="28" height="32" rx="4" fill="#3498db" opacity="0.12" stroke="#3498db" stroke-width="1"/>
    <text x="166" y="138" fill="#3498db" font-size="12" text-anchor="middle">n</text>
    <rect x="184" y="117" width="28" height="32" rx="4" fill="#3498db" opacity="0.12" stroke="#3498db" stroke-width="1"/>
    <text x="198" y="138" fill="#3498db" font-size="12" text-anchor="middle">h</text>
    <rect x="216" y="117" width="28" height="32" rx="4" fill="#3498db" opacity="0.12" stroke="#3498db" stroke-width="1"/>
    <text x="230" y="138" fill="#3498db" font-size="12" text-anchor="middle">a</text>
    <rect x="248" y="117" width="28" height="32" rx="4" fill="#3498db" opacity="0.12" stroke="#3498db" stroke-width="1"/>
    <text x="262" y="138" fill="#3498db" font-size="12" text-anchor="middle">p</text>
    <rect x="280" y="117" width="28" height="32" rx="4" fill="#3498db" opacity="0.12" stroke="#3498db" stroke-width="1"/>
    <text x="294" y="138" fill="#3498db" font-size="12" text-anchor="middle">p</text>
    <rect x="312" y="117" width="28" height="32" rx="4" fill="#3498db" opacity="0.12" stroke="#3498db" stroke-width="1"/>
    <text x="326" y="138" fill="#3498db" font-size="12" text-anchor="middle">i</text>
    <rect x="344" y="117" width="28" height="32" rx="4" fill="#3498db" opacity="0.12" stroke="#3498db" stroke-width="1"/>
    <text x="358" y="138" fill="#3498db" font-size="12" text-anchor="middle">n</text>
    <rect x="376" y="117" width="28" height="32" rx="4" fill="#3498db" opacity="0.12" stroke="#3498db" stroke-width="1"/>
    <text x="390" y="138" fill="#3498db" font-size="12" text-anchor="middle">e</text>
    <rect x="408" y="117" width="28" height="32" rx="4" fill="#3498db" opacity="0.12" stroke="#3498db" stroke-width="1"/>
    <text x="422" y="138" fill="#3498db" font-size="12" text-anchor="middle">s</text>
    <rect x="440" y="117" width="28" height="32" rx="4" fill="#3498db" opacity="0.12" stroke="#3498db" stroke-width="1"/>
    <text x="454" y="138" fill="#3498db" font-size="12" text-anchor="middle">s</text>
  </g>
  <text x="510" y="137" fill="#666" font-size="10">11个纪念品，，没有未知的,但很长</text>

  <!-- Subword (BPE) -->
  <text x="30" y="207" fill="#27ae60" font-size="12" font-weight="bold">子词:</text>
  <rect x="120" y="187" width="55" height="32" rx="6" fill="#27ae60" opacity="0.12" stroke="#27ae60" stroke-width="1.5"/>
  <text x="147" y="208" fill="#27ae60" font-size="13" text-anchor="middle">关闭</text>
  <rect x="185" y="187" width="80" height="32" rx="6" fill="#27ae60" opacity="0.12" stroke="#27ae60" stroke-width="1.5"/>
  <text x="225" y="208" fill="#27ae60" font-size="13" text-anchor="middle">霍普比语Name</text>
  <rect x="275" y="187" width="65" height="32" rx="6" fill="#27ae60" opacity="0.12" stroke="#27ae60" stroke-width="1.5"/>
  <text x="307" y="208" fill="#27ae60" font-size="13" text-anchor="middle">性能</text>
  <text x="400" y="207" fill="#666" font-size="10">3个标志，，最好的是:紧凑和开口活字</text>

  <!-- Bottom note -->
  <text x="350" y="250" fill="#666" font-size="10" text-anchor="middle">子词符号化(BPE) 近似于数据形态分析</text>
</svg>